<svg xmlns="http://www.w3.org/2000/svg" width="55" height="72.788" viewBox="0 0 55 72.788">
  <g id="Group_27" data-name="Group 27" transform="translate(0 0)">
    <path id="Path_1" data-name="Path 1" d="M-514.031,1042.438a21.314,21.314,0,0,1,6.983,2.961c3.262,2.943,5.331,5.577,6.086,9.507,1.456,7.587-.08,20.115-1.114,25.875s-4.694,21.028-4.694,21.028H-493.4s-1.989-13.908-2.347-20.193.636-17.561-1.79-25.755a28.746,28.746,0,0,0-2.478-6.685,15.136,15.136,0,0,0-6.154-5.646c-4.773-2.665-7.6-2.506-7.6-2.506Z" transform="translate(522.72 -1029.021)"/>
    <circle id="Ellipse_4" data-name="Ellipse 4" cx="5.5" cy="5.5" r="5.5" transform="translate(7 18)"/>
    <circle id="Ellipse_5" data-name="Ellipse 5" cx="5.5" cy="5.5" r="5.5" transform="translate(18 7)"/>
    <circle id="Ellipse_6" data-name="Ellipse 6" cx="5.5" cy="5.5" r="5.5" transform="translate(29 0)"/>
    <ellipse id="Ellipse_7" data-name="Ellipse 7" cx="6" cy="5.5" rx="6" ry="5.5" transform="translate(37 9)"/>
    <circle id="Ellipse_8" data-name="Ellipse 8" cx="5.5" cy="5.5" r="5.5" transform="translate(26 15)"/>
    <circle id="Ellipse_9" data-name="Ellipse 9" cx="5.5" cy="5.5" r="5.5" transform="translate(29 29)"/>
    <ellipse id="Ellipse_10" data-name="Ellipse 10" cx="6" cy="5.5" rx="6" ry="5.5" transform="translate(37 22)"/>
    <circle id="Ellipse_12" data-name="Ellipse 12" cx="5.5" cy="5.5" r="5.5" transform="translate(29 42)"/>
    <circle id="Ellipse_14" data-name="Ellipse 14" cx="5.5" cy="5.5" r="5.5" transform="translate(9 42)"/>
    <circle id="Ellipse_15" data-name="Ellipse 15" cx="5.5" cy="5.5" r="5.5" transform="translate(11 29)"/>
    <circle id="Ellipse_19" data-name="Ellipse 19" cx="3.5" cy="3.5" r="3.5" transform="translate(11 4)"/>
    <circle id="Ellipse_11" data-name="Ellipse 11" cx="5.5" cy="5.5" r="5.5" transform="translate(40 35)"/>
    <circle id="Ellipse_3" data-name="Ellipse 3" cx="3.5" cy="3.5" r="3.5" transform="translate(0 24)"/>
    <circle id="Ellipse_13" data-name="Ellipse 13" cx="3" cy="3" r="3" transform="translate(49 31)"/>
    <circle id="Ellipse_17" data-name="Ellipse 17" cx="5.5" cy="5.5" r="5.5" transform="translate(0 33)"/>
    <circle id="Ellipse_18" data-name="Ellipse 18" cx="5.5" cy="5.5" r="5.5" transform="translate(0 7)"/>
  </g>
</svg>
